{
  "accessors": [
    {
      "bufferView": 2,
      "componentType": 5126,
      "count": 8956,
      "max": [
        5.6626996994018555,
        17.300350189208984,
        3.772366523742676
      ],
      "min": [
        -5.6626996994018555,
        8.322050094604492,
        -0.8019537925720215
      ],
      "type": "VEC3"
    },
    {
      "bufferView": 2,
      "byteOffset": 107472,
      "componentType": 5126,
      "count": 8956,
      "max": [
        0.9999086260795593,
        0.9999560117721558,
        0.9999660849571228
      ],
      "min": [
        -0.9999783039093018,
        -0.9989694356918335,
        -0.9997042417526245
      ],
      "type": "VEC3"
    },
    {
      "bufferView": 1,
      "componentType": 5126,
      "count": 8956,
      "max": [
        0.9934999942779541,
        0.9735999703407288
      ],
      "min": [
        0.00930000003427267,
        0.009999999776482582
      ],
      "type": "VEC2"
    },
    {
      "bufferView": 0,
      "componentType": 5125,
      "count": 48576,
      "type": "SCALAR"
    },
    {
      "bufferView": 2,
      "byteOffset": 214944,
      "componentType": 5126,
      "count": 1076,
      "max": [
        0.45030152797698975,
        16.366455078125,
        1.4332844018936157
      ],
      "min": [
        -0.45030149817466736,
        16.067039489746094,
        1.1851242780685425
      ],
      "type": "VEC3"
    },
    {
      "bufferView": 2,
      "byteOffset": 227856,
      "componentType": 5126,
      "count": 1076,
      "max": [
        0.997076690196991,
        0.9971774220466614,
        0.9995926022529602
      ],
      "min": [
        -0.9971449375152588,
        -0.9972810745239258,
        -0.38696664571762085
      ],
      "type": "VEC3"
    },
    {
      "bufferView": 1,
      "byteOffset": 71648,
      "componentType": 5126,
      "count": 1076,
      "max": [
        0.991100013256073,
        0.9763000011444092
      ],
      "min": [
        0.03620000183582306,
        0.010999999940395355
      ],
      "type": "VEC2"
    },
    {
      "bufferView": 0,
      "byteOffset": 194304,
      "componentType": 5125,
      "count": 6120,
      "type": "SCALAR"
    },
    {
      "bufferView": 2,
      "byteOffset": 240768,
      "componentType": 5126,
      "count": 124,
      "max": [
        0.5779361128807068,
        16.38213348388672,
        1.5160354375839233
      ],
      "min": [
        -0.5779361128807068,
        16.249095916748047,
        1.2335091829299927
      ],
      "type": "VEC3"
    },
    {
      "bufferView": 2,
      "byteOffset": 242256,
      "componentType": 5126,
      "count": 124,
      "max": [
        0.9252488017082214,
        0.8714547753334045,
        0.9476290941238403
      ],
      "min": [
        -0.8983279466629028,
        -0.9576035737991333,
        0.10748805850744247
      ],
      "type": "VEC3"
    },
    {
      "bufferView": 1,
      "byteOffset": 80256,
      "componentType": 5126,
      "count": 124,
      "max": [
        0.9635999798774719,
        0.7128000259399414
      ],
      "min": [
        0.030799999833106995,
        0.14880000054836273
      ],
      "type": "VEC2"
    },
    {
      "bufferView": 0,
      "byteOffset": 218784,
      "componentType": 5125,
      "count": 576,
      "type": "SCALAR"
    },
    {
      "bufferView": 2,
      "byteOffset": 243744,
      "componentType": 5126,
      "count": 250,
      "max": [
        0.4817999601364136,
        16.26045036315918,
        1.4769662618637085
      ],
      "min": [
        -0.4817999601364136,
        16.122684478759766,
        1.333999514579773
      ],
      "type": "VEC3"
    },
    {
      "bufferView": 2,
      "byteOffset": 246744,
      "componentType": 5126,
      "count": 250,
      "max": [
        0.6953668594360352,
        0.9992014765739441,
        0.9975546002388
      ],
      "min": [
        -0.7421128749847412,
        -0.9937257170677185,
        -0.13318227231502533
      ],
      "type": "VEC3"
    },
    {
      "bufferView": 1,
      "byteOffset": 81248,
      "componentType": 5126,
      "count": 250,
      "max": [
        0.9770050048828125,
        0.9627190232276917
      ],
      "min": [
        0.06547699868679047,
        0.029293999075889587
      ],
      "type": "VEC2"
    },
    {
      "bufferView": 0,
      "byteOffset": 221088,
      "componentType": 5125,
      "count": 1104,
      "type": "SCALAR"
    },
    {
      "bufferView": 2,
      "byteOffset": 249744,
      "componentType": 5126,
      "count": 4494,
      "max": [
        0.30563396215438843,
        15.685202598571777,
        1.4713431596755981
      ],
      "min": [
        -0.3056371510028839,
        15.185275077819824,
        0.7273755669593811
      ],
      "type": "VEC3"
    },
    {
      "bufferView": 2,
      "byteOffset": 303672,
      "componentType": 5126,
      "count": 4494,
      "max": [
        0.9998629093170166,
        0.9999433755874634,
        0.9990618228912354
      ],
      "min": [
        -0.999265730381012,
        -0.999976634979248,
        -0.9968540668487549
      ],
      "type": "VEC3"
    },
    {
      "bufferView": 1,
      "byteOffset": 83248,
      "componentType": 5126,
      "count": 4494,
      "max": [
        0.9800000190734863,
        0.9930999875068665
      ],
      "min": [
        0.006899999920278788,
        0.006899999920278788
      ],
      "type": "VEC2"
    },
    {
      "bufferView": 0,
      "byteOffset": 225504,
      "componentType": 5125,
      "count": 21360,
      "type": "SCALAR"
    },
    {
      "bufferView": 2,
      "byteOffset": 357600,
      "componentType": 5126,
      "count": 253,
      "max": [
        0.22130000591278076,
        15.596817016601563,
        1.3795664310455322
      ],
      "min": [
        -0.22130000591278076,
        15.332149505615234,
        0.6793330907821655
      ],
      "type": "VEC3"
    },
    {
      "bufferView": 2,
      "byteOffset": 360636,
      "componentType": 5126,
      "count": 253,
      "max": [
        0.9677297472953796,
        0.9980007410049438,
        0.988231360912323
      ],
      "min": [
        -0.980805516242981,
        -0.9989134669303894,
        -0.9935981631278992
      ],
      "type": "VEC3"
    },
    {
      "bufferView": 1,
      "byteOffset": 119200,
      "componentType": 5126,
      "count": 253,
      "max": [
        0.96670001745224,
        0.967199981212616
      ],
      "min": [
        0.02889999933540821,
        0.029400000348687172
      ],
      "type": "VEC2"
    },
    {
      "bufferView": 0,
      "byteOffset": 310944,
      "componentType": 5125,
      "count": 1344,
      "type": "SCALAR"
    },
    {
      "bufferView": 2,
      "byteOffset": 363672,
      "componentType": 5126,
      "count": 8864,
      "max": [
        5.1790032386779785,
        15.247650146484375,
        2.4173691272735596
      ],
      "min": [
        -5.217986106872559,
        0.7182853817939758,
        -1.281432867050171
      ],
      "type": "VEC3"
    },
    {
      "bufferView": 2,
      "byteOffset": 470040,
      "componentType": 5126,
      "count": 8864,
      "max": [
        0.9999963045120239,
        0.9992154836654663,
        0.9999802708625793
      ],
      "min": [
        -0.9998297095298767,
        -0.9964322447776794,
        -0.9997550249099731
      ],
      "type": "VEC3"
    },
    {
      "bufferView": 1,
      "byteOffset": 121224,
      "componentType": 5126,
      "count": 8864,
      "max": [
        0.9211999773979187,
        0.9886000156402588
      ],
      "min": [
        0.01140000019222498,
        0.01140000019222498
      ],
      "type": "VEC2"
    },
    {
      "bufferView": 1,
      "byteOffset": 192136,
      "componentType": 5126,
      "count": 8864,
      "max": [
        0.9211999773979187,
        0.9886000156402588
      ],
      "min": [
        0.01140000019222498,
        0.01140000019222498
      ],
      "type": "VEC2"
    },
    {
      "bufferView": 0,
      "byteOffset": 316320,
      "componentType": 5125,
      "count": 50016,
      "type": "SCALAR"
    },
    {
      "bufferView": 2,
      "byteOffset": 576408,
      "componentType": 5126,
      "count": 2404,
      "max": [
        2.5685055255889893,
        1.349016547203064,
        2.186732053756714
      ],
      "min": [
        -2.568505048751831,
        -0.25340721011161804,
        -0.4887595474720001
      ],
      "type": "VEC3"
    },
    {
      "bufferView": 2,
      "byteOffset": 605256,
      "componentType": 5126,
      "count": 2404,
      "max": [
        0.9997346997261047,
        0.997429609298706,
        0.9940803647041321
      ],
      "min": [
        -0.9999651908874512,
        -0.9995447993278503,
        -0.9998155832290649
      ],
      "type": "VEC3"
    },
    {
      "bufferView": 1,
      "byteOffset": 263048,
      "componentType": 5126,
      "count": 2404,
      "max": [
        0.8460999727249146,
        0.8852999806404114
      ],
      "min": [
        0.02500000037252903,
        0.0364999994635582
      ],
      "type": "VEC2"
    },
    {
      "bufferView": 0,
      "byteOffset": 516384,
      "componentType": 5125,
      "count": 11748,
      "type": "SCALAR"
    },
    {
      "bufferView": 3,
      "componentType": 5126,
      "count": 1,
      "max": [
        1.0,
        0.0,
        0.0,
        0.0,
        0.0,
        1.0,
        0.0,
        0.0,
        0.0,
        0.0,
        1.0,
        0.0,
        0.0,
        0.0,
        0.0,
        1.0
      ],
      "min": [
        1.0,
        0.0,
        0.0,
        0.0,
        0.0,
        1.0,
        0.0,
        0.0,
        0.0,
        0.0,
        1.0,
        0.0,
        0.0,
        0.0,
        0.0,
        1.0
      ],
      "type": "MAT4"
    }
  ],
  "asset": {
    "extras": {
      "author": "Free 3D Models (https://sketchfab.com/free3dmodels)",
      "license": "CC-BY-4.0 (http://creativecommons.org/licenses/by/4.0/)",
      "source": "https://sketchfab.com/3d-models/generic-human-male-free-3d-model-8993d5f7e5e24f9987b32bfa1e7179b6",
      "title": "Generic human male FREE 3D MODEL"
    },
    "generator": "Sketchfab-12.68.0",
    "version": "2.0"
  },
  "bufferViews": [
    {
      "buffer": 0,
      "byteLength": 563376,
      "name": "floatBufferViews",
      "target": 34963
    },
    {
      "buffer": 0,
      "byteLength": 282280,
      "byteOffset": 563376,
      "byteStride": 8,
      "name": "floatBufferViews",
      "target": 34962
    },
    {
      "buffer": 0,
      "byteLength": 634104,
      "byteOffset": 845656,
      "byteStride": 12,
      "name": "floatBufferViews",
      "target": 34962
    },
    {
      "buffer": 0,
      "byteLength": 64,
      "byteOffset": 1479760,
      "name": "floatBufferViews"
    }
  ],
  "buffers": [
    {
      "byteLength": 1479824,
      "uri": "scene.bin"
    }
  ],
  "images": [
    {
      "uri": "textures/male_muscle_13290_baseColor.png"
    },
    {
      "uri": "textures/high-poly_baseColor.png"
    },
    {
      "uri": "textures/eyebrow002_baseColor.png"
    },
    {
      "uri": "textures/eyelashes01_baseColor.png"
    },
    {
      "uri": "textures/male_casualsuit01_baseColor.png"
    },
    {
      "uri": "textures/shoes03_baseColor.png"
    }
  ],
  "materials": [
    {
      "doubleSided": true,
      "name": "male_muscle_13290",
      "pbrMetallicRoughness": {
        "baseColorTexture": {
          "index": 0
        },
        "metallicFactor": 0.0,
        "roughnessFactor": 0.9941948203
      }
    },
    {
      "alphaMode": "BLEND",
      "doubleSided": true,
      "name": "high-poly",
      "pbrMetallicRoughness": {
        "baseColorTexture": {
          "index": 1
        },
        "metallicFactor": 0.0,
        "roughnessFactor": 0.7885257473
      }
    },
    {
      "alphaMode": "BLEND",
      "doubleSided": true,
      "name": "eyebrow002",
      "pbrMetallicRoughness": {
        "baseColorTexture": {
          "index": 2
        },
        "metallicFactor": 0.0
      }
    },
    {
      "alphaMode": "BLEND",
      "doubleSided": true,
      "name": "eyelashes01",
      "pbrMetallicRoughness": {
        "baseColorTexture": {
          "index": 3
        },
        "metallicFactor": 0.0
      }
    },
    {
      "doubleSided": true,
      "name": "teeth_shape02",
      "pbrMetallicRoughness": {
        "baseColorFactor": [
          0.64,
          0.64,
          0.64,
          1.0
        ],
        "metallicFactor": 0.0,
        "roughnessFactor": 0.8192102384
      }
    },
    {
      "doubleSided": true,
      "name": "tongue01",
      "pbrMetallicRoughness": {
        "metallicFactor": 0.0,
        "roughnessFactor": 0.993365524
      }
    },
    {
      "doubleSided": true,
      "name": "male_casualsuit01",
      "pbrMetallicRoughness": {
        "baseColorTexture": {
          "index": 4
        },
        "metallicFactor": 0.0
      }
    },
    {
      "doubleSided": true,
      "name": "shoes03",
      "pbrMetallicRoughness": {
        "baseColorTexture": {
          "index": 5
        },
        "metallicFactor": 0.0,
        "roughnessFactor": 0.9931892111
      }
    }
  ],
  "meshes": [
    {
      "name": "Object_0",
      "primitives": [
        {
          "attributes": {
            "NORMAL": 1,
            "POSITION": 0,
            "TEXCOORD_0": 2
          },
          "indices": 3,
          "material": 0,
          "mode": 4
        }
      ]
    },
    {
      "name": "Object_1",
      "primitives": [
        {
          "attributes": {
            "NORMAL": 5,
            "POSITION": 4,
            "TEXCOORD_0": 6
          },
          "indices": 7,
          "material": 1,
          "mode": 4
        }
      ]
    },
    {
      "name": "Object_2",
      "primitives": [
        {
          "attributes": {
            "NORMAL": 9,
            "POSITION": 8,
            "TEXCOORD_0": 10
          },
          "indices": 11,
          "material": 2,
          "mode": 4
        }
      ]
    },
    {
      "name": "Object_3",
      "primitives": [
        {
          "attributes": {
            "NORMAL": 13,
            "POSITION": 12,
            "TEXCOORD_0": 14
          },
          "indices": 15,
          "material": 3,
          "mode": 4
        }
      ]
    },
    {
      "name": "Object_4",
      "primitives": [
        {
          "attributes": {
            "NORMAL": 17,
            "POSITION": 16,
            "TEXCOORD_0": 18
          },
          "indices": 19,
          "material": 4,
          "mode": 4
        }
      ]
    },
    {
      "name": "Object_5",
      "primitives": [
        {
          "attributes": {
            "NORMAL": 21,
            "POSITION": 20,
            "TEXCOORD_0": 22
          },
          "indices": 23,
          "material": 5,
          "mode": 4
        }
      ]
    },
    {
      "name": "Object_6",
      "primitives": [
        {
          "attributes": {
            "NORMAL": 25,
            "POSITION": 24,
            "TEXCOORD_0": 26,
            "TEXCOORD_1": 27
          },
          "indices": 28,
          "material": 6,
          "mode": 4
        }
      ]
    },
    {
      "name": "Object_7",
      "primitives": [
        {
          "attributes": {
            "NORMAL": 30,
            "POSITION": 29,
            "TEXCOORD_0": 31
          },
          "indices": 32,
          "material": 7,
          "mode": 4
        }
      ]
    }
  ],
  "nodes": [
    {
      "children": [
        1
      ],
      "matrix": [
        1.0,
        0.0,
        0.0,
        0.0,
        0.0,
        2.220446049250313e-16,
        -1.0,
        0.0,
        0.0,
        1.0,
        2.220446049250313e-16,
        0.0,
        0.0,
        0.0,
        0.0,
        1.0
      ],
      "name": "Sketchfab_model"
    },
    {
      "children": [
        2
      ],
      "matrix": [
        1.0,
        0.0,
        0.0,
        0.0,
        0.0,
        0.0,
        1.0,
        0.0,
        0.0,
        -1.0,
        0.0,
        0.0,
        0.0,
        0.0,
        0.0,
        1.0
      ],
      "name": "478eaeb6d06d446596290da7cad2a0a1.fbx"
    },
    {
      "children": [
        3
      ],
      "name": "RootNode"
    },
    {
      "children": [
        4
      ],
      "name": "MakeHuman default skeleton"
    },
    {
      "children": [
        5,
        6,
        8,
        10,
        12,
        14,
        16,
        18,
        20
      ],
      "name": "Object_4"
    },
    {
      "name": "_rootJoint"
    },
    {
      "children": [
        7
      ],
      "matrix": [
        1.0,
        2.3400630163576058e-17,
        -1.2548362979653932e-18,
        0.0,
        -2.3400629630800468e-17,
        0.9999999772324255,
        0.0,
        0.0,
        1.2548362693958143e-18,
        2.9363959455972947e-35,
        0.9999999772324255,
        0.0,
        -3.5541067038915994e-16,
        2.259865041764897e-07,
        -6.89896495487119e-08,
        1.0
      ],
      "name": "Object_6"
    },
    {
      "mesh": 0,
      "name": "Object_7"
    },
    {
      "children": [
        9
      ],
      "matrix": [
        0.9999999768737641,
        -1.395405180293352e-10,
        1.225328040421747e-09,
        0.0,
        1.395405276048319e-10,
        1.0000000093287837,
        -4.118657248586288e-09,
        0.0,
        -1.225328066205991e-09,
        4.118657203685737e-09,
        0.9999999983855241,
        0.0,
        -1.0590852639325021e-09,
        -2.3929938208766544e-07,
        -9.305256476466184e-08,
        1.0
      ],
      "name": "Object_8"
    },
    {
      "mesh": 1,
      "name": "Object_9"
    },
    {
      "children": [
        11
      ],
      "matrix": [
        1.0,
        5.2566520521918875e-18,
        -1.950303287220377e-18,
        0.0,
        -5.2566521452975455e-18,
        1.0000000172560215,
        -1.2289154138755976e-09,
        0.0,
        1.9503033144148716e-18,
        1.2289154138755976e-09,
        1.0000000172560215,
        0.0,
        -1.437795745444567e-16,
        -9.441096793239012e-09,
        5.004956449283782e-09,
        1.0
      ],
      "name": "Object_10"
    },
    {
      "mesh": 2,
      "name": "Object_11"
    },
    {
      "children": [
        13
      ],
      "matrix": [
        1.0,
        5.2566520521918875e-18,
        -1.950303287220377e-18,
        0.0,
        -5.2566521452975455e-18,
        1.0000000172560215,
        -1.2289154138755976e-09,
        0.0,
        1.9503033144148716e-18,
        1.2289154138755976e-09,
        1.0000000172560215,
        0.0,
        -1.437795745444567e-16,
        -9.441096793239012e-09,
        5.004956449283782e-09,
        1.0
      ],
      "name": "Object_12"
    },
    {
      "mesh": 3,
      "name": "Object_13"
    },
    {
      "children": [
        15
      ],
      "matrix": [
        1.0,
        5.2566520521918875e-18,
        -1.950303287220377e-18,
        0.0,
        -5.2566521452975455e-18,
        1.0000000172560215,
        -1.2289154138755976e-09,
        0.0,
        1.9503033144148716e-18,
        1.2289154138755976e-09,
        1.0000000172560215,
        0.0,
        -1.437795745444567e-16,
        -9.441096793239012e-09,
        5.004956449283782e-09,
        1.0
      ],
      "name": "Object_14"
    },
    {
      "mesh": 4,
      "name": "Object_15"
    },
    {
      "children": [
        17
      ],
      "matrix": [
        1.0,
        5.2566520521918875e-18,
        -1.950303287220377e-18,
        0.0,
        -5.2566521452975455e-18,
        1.0000000172560215,
        -1.2289154138755976e-09,
        0.0,
        1.9503033144148716e-18,
        1.2289154138755976e-09,
        1.0000000172560215,
        0.0,
        -1.437795745444567e-16,
        -9.441096793239012e-09,
        5.004956449283782e-09,
        1.0
      ],
      "name": "Object_16"
    },
    {
      "mesh": 5,
      "name": "Object_17"
    },
    {
      "children": [
        19
      ],
      "matrix": [
        1.0,
        2.3400630163576058e-17,
        -1.2548362979653932e-18,
        0.0,
        -2.3400629630800468e-17,
        0.9999999772324255,
        0.0,
        0.0,
        1.2548362693958143e-18,
        2.9363959455972947e-35,
        0.9999999772324255,
        0.0,
        -3.5541067038915994e-16,
        2.259865041764897e-07,
        -6.89896495487119e-08,
        1.0
      ],
      "name": "Object_18"
    },
    {
      "mesh": 6,
      "name": "Object_19"
    },
    {
      "children": [
        21
      ],
      "matrix": [
        1.0000000180082658,
        3.961519196016283e-09,
        2.9878964580287715e-10,
        0.0,
        -3.961519046890124e-09,
        0.9999999804090655,
        -5.897392157949711e-10,
        0.0,
        -2.987896339181549e-10,
        5.897392087162127e-10,
        0.9999999704129564,
        0.0,
        -2.0978229597901077e-08,
        2.0602282813086958e-07,
        5.993313401120304e-09,
        1.0
      ],
      "name": "Object_20"
    },
    {
      "mesh": 7,
      "name": "Object_21"
    }
  ],
  "samplers": [
    {
      "magFilter": 9729,
      "minFilter": 9987,
      "wrapS": 10497,
      "wrapT": 10497
    }
  ],
  "scene": 0,
  "scenes": [
    {
      "name": "Sketchfab_Scene",
      "nodes": [
        0
      ]
    }
  ],
  "skins": [
    {
      "inverseBindMatrices": 33,
      "joints": [
        5
      ],
      "skeleton": 5
    }
  ],
  "textures": [
    {
      "sampler": 0,
      "source": 0
    },
    {
      "sampler": 0,
      "source": 1
    },
    {
      "sampler": 0,
      "source": 2
    },
    {
      "sampler": 0,
      "source": 3
    },
    {
      "sampler": 0,
      "source": 4
    },
    {
      "sampler": 0,
      "source": 5
    }
  ]
}
